<?xml version="1.0"?>
<svg width="868" height="107" xmlns="http://www.w3.org/2000/svg" xmlns:svg="http://www.w3.org/2000/svg" preserveAspectRatio="xMidYMid meet">
 <g class="layer">
  <title>Layer 1</title>
  <g fill="#000000" id="svg_1" transform="translate(0 107) scale(0.1 -0.1)">
   <path d="m0,545l0,-525l180,0l180,0l0,261c0,280 2,287 48,219c22,-32 51,-119 70,-210c7,-33 10,37 10,255l1,300l-24,-93c-24,-94 -70,-192 -92,-200c-10,-3 -13,41 -13,195c-1,206 -8,252 -47,295l-18,21l85,-5c130,-7 208,-51 274,-156c24,-39 62,-139 69,-182c2,-14 5,59 6,163l1,187l-365,0l-365,0l0,-525z" fill="#2d2075" id="svg_2"/>
   <path d="m800,546l0,-524l38,9c61,14 146,10 275,-12c351,-61 507,65 440,354l-16,72l-13,-65c-39,-205 -151,-334 -306,-347l-58,-6l0,257c0,151 4,256 9,256c28,0 79,-114 106,-234c12,-56 13,-36 14,239l0,300l-23,-90c-32,-122 -71,-205 -97,-205c-5,0 -9,82 -9,198c-1,205 -8,251 -47,294l-18,21l85,-5c103,-5 162,-29 221,-90c47,-48 105,-160 118,-229c6,-32 9,7 10,144l1,187l-365,0l-365,0l0,-524z" fill="#2d2075" id="svg_3"/>
   <path d="m1630,545l0,-525l180,0l180,0l0,525l0,525l-180,0l-180,0l0,-525z" fill="#2d2075" id="svg_4"/>
   <path d="m2070,546l0,-525l32,10c52,15 156,11 273,-11c131,-24 191,-25 270,-5c88,23 132,56 162,122c23,49 25,64 20,141c-3,48 -11,105 -18,127l-12,40l-13,-74c-34,-195 -169,-341 -316,-341l-38,0l0,520l0,520l-180,0l-180,0l0,-524z" fill="#2d2075" id="svg_5"/>
   <path d="m2900,544l0,-526l338,4c372,5 410,11 477,69c44,39 59,85 53,168c-10,129 -77,205 -264,296c-63,31 -114,57 -114,58c0,1 42,2 93,2c105,0 151,18 204,79c41,46 56,96 51,165c-6,78 -32,128 -86,162c-69,44 -118,49 -447,49l-305,0l0,-526zm186,506c181,-19 282,-69 328,-162c77,-153 -36,-284 -181,-209c-95,48 -283,288 -283,361c0,23 6,24 136,10zm119,-410c143,-146 175,-195 195,-298c16,-81 9,-212 -13,-246c-21,-32 -52,-52 -93,-61l-32,-6l-4,123c-5,146 -17,181 -151,423c-100,182 -146,281 -154,332c-6,37 -4,35 57,-47c35,-47 122,-146 195,-220z" fill="#2d2075" id="svg_6"/>
   <path d="m3840,545l0,-525l180,0l180,0l0,525l0,525l-180,0l-180,0l0,-525z" fill="#2d2075" id="svg_7"/>
   <path d="m4280,546l0,-524l38,9c61,14 146,10 275,-12c351,-61 507,65 440,354l-16,72l-13,-65c-39,-205 -151,-334 -306,-347l-58,-6l0,257c0,151 4,256 9,256c28,0 79,-114 106,-234c12,-56 13,-36 14,239l0,300l-23,-90c-32,-122 -71,-205 -97,-205c-5,0 -9,82 -9,198c-1,205 -8,251 -47,294l-18,21l85,-5c103,-5 162,-29 221,-90c47,-48 105,-160 118,-229c6,-32 9,7 10,144l1,187l-365,0l-365,0l0,-524z" fill="#2d2075" id="svg_8"/>
   <path d="m5091,898c0,-155 2,-168 13,-128c34,127 133,246 226,274c76,23 94,22 80,-4c-37,-68 -60,-363 -60,-757l0,-263l181,0l181,0l-5,377c-5,384 -16,522 -51,623l-14,42l41,-6c64,-11 121,-40 168,-88c47,-48 105,-160 118,-229c6,-32 9,7 10,144l1,187l-445,0l-445,0l1,-172z" fill="#2d2075" id="svg_9"/>
   <path d="m6062,678l3,-393l28,-55c39,-76 108,-143 181,-177c56,-26 70,-28 181,-28c111,0 125,2 181,28c73,34 142,101 181,177l28,55l3,393l3,392l-181,0l-180,0l0,-27c0,-47 29,-205 49,-268c10,-33 41,-115 69,-181c94,-227 113,-358 67,-450c-31,-60 -57,-79 -131,-99c-70,-18 -96,-19 -112,-3c-9,9 -12,138 -12,520l0,508l-180,0l-181,0l3,-392z" fill="#2d2075" id="svg_10"/>
   <path d="m6930,545l0,-525l135,0l135,0l0,39c0,59 -34,157 -86,246c-151,261 -164,296 -170,465c-3,92 -2,121 6,110c6,-8 101,-204 210,-435l200,-420l180,-3l180,-2l0,525l0,525l-135,0c-153,0 -145,7 -124,-92c15,-71 45,-135 128,-281c100,-173 113,-214 117,-372l4,-130l-21,40c-11,22 -105,218 -208,435l-187,395l-182,3l-182,2l0,-525z" fill="#2d2075" id="svg_11"/>
   <path d="m8150,1054c-261,-69 -388,-291 -339,-594c24,-151 154,-326 290,-389c224,-105 479,-31 534,153c11,35 15,99 15,223l0,173l-187,-1l-188,0l67,-24c214,-75 353,-212 281,-278c-43,-38 -180,-29 -274,18c-204,104 -359,379 -319,569c25,123 105,161 247,117c131,-40 235,-118 279,-208l28,-56l33,99l33,99l-22,19c-97,81 -329,120 -478,80z" fill="#2d2075" id="svg_12"/>
  </g>
 </g>
</svg>